<svg xmlns="http://www.w3.org/2000/svg" xmlns:xlink="http://www.w3.org/1999/xlink" width="500" zoomAndPan="magnify" viewBox="0 0 375 374.999991" height="500" preserveAspectRatio="xMidYMid meet" version="1.0"><path fill="#ffffff" d="M 316.820312 60.195312 L 58.179688 60.195312 C 69.414062 48.675781 81.796875 37.15625 95.621094 31.394531 L 279.378906 31.394531 C 293.203125 37.15625 305.585938 48.675781 316.820312 60.195312 Z M 19.296875 117.800781 L 355.414062 117.800781 C 351.09375 106.277344 345.910156 97.636719 339.863281 88.996094 L 34.5625 88.996094 C 28.800781 97.636719 23.617188 106.277344 19.296875 117.800781 Z M 5.472656 175.402344 L 369.527344 175.402344 C 368.664062 163.882812 367.222656 155.242188 364.917969 146.601562 L 10.082031 146.601562 C 7.777344 155.242188 6.335938 163.882812 5.472656 175.402344 Z M 10.367188 233.007812 L 364.917969 233.007812 C 367.222656 221.484375 368.953125 212.84375 369.527344 204.203125 L 5.472656 204.203125 C 6.335938 212.84375 8.066406 221.484375 10.367188 233.007812 Z M 35.714844 290.609375 L 338.996094 290.609375 C 345.046875 279.089844 350.230469 270.449219 354.839844 261.808594 L 20.160156 261.808594 C 24.480469 270.449219 29.664062 279.089844 35.714844 290.609375 Z M 98.214844 348.214844 L 276.785156 348.214844 C 290.898438 339.574219 303.570312 328.054688 315.09375 319.414062 L 59.90625 319.414062 C 71.140625 328.054688 84.101562 339.574219 98.214844 348.214844 Z M 98.214844 348.214844 " fill-opacity="1" fill-rule="nonzero"/><path fill="#e74b3c" d="M 33.984375 88.996094 C 40.609375 78.628906 48.386719 69.125 57.027344 60.195312 L 317.394531 60.195312 C 326.035156 68.835938 333.8125 77.476562 340.726562 88.996094 Z M 93.03125 31.394531 L 279.953125 31.394531 C 267.28125 23.042969 253.167969 16.703125 238.765625 12.386719 C 237.039062 11.808594 235.597656 11.519531 233.871094 10.945312 C 233.582031 10.945312 233.296875 10.65625 233.007812 10.65625 C 221.484375 7.777344 209.390625 5.761719 197.003906 5.183594 C 193.835938 4.894531 190.667969 4.894531 187.789062 4.894531 C 152.9375 4.894531 120.679688 14.6875 93.03125 31.394531 Z M 18.722656 117.800781 C 14.976562 127.015625 11.808594 136.808594 9.503906 146.601562 L 365.207031 146.601562 C 365.207031 146.023438 364.917969 145.449219 364.917969 144.875 C 363.191406 138.25 361.464844 131.914062 359.160156 125.574219 C 358.296875 122.984375 357.144531 120.390625 355.992188 118.085938 L 18.722656 118.085938 Z M 369.816406 175.402344 L 5.472656 175.402344 C 5.183594 179.722656 4.894531 184.042969 4.894531 188.363281 C 4.894531 193.546875 5.183594 198.445312 5.472656 204.203125 L 369.527344 204.203125 C 369.816406 198.445312 370.105469 194.125 370.105469 188.941406 C 370.390625 184.332031 370.105469 178.285156 369.816406 175.402344 Z M 355.125 261.808594 C 359.160156 250.289062 362.328125 241.648438 364.917969 233.007812 L 10.082031 233.007812 C 12.386719 241.648438 15.839844 250.289062 19.875 261.808594 Z M 59.332031 319.414062 L 315.667969 319.414062 C 324.597656 307.890625 332.375 299.25 339.574219 290.609375 L 35.425781 290.609375 C 42.625 299.25 50.402344 307.890625 59.332031 319.414062 Z M 187.789062 372.121094 C 220.621094 372.121094 251.441406 362.328125 278.226562 347.925781 L 97.0625 347.925781 C 123.847656 362.613281 154.664062 372.121094 187.789062 372.121094 Z M 187.789062 372.121094 " fill-opacity="1" fill-rule="nonzero"/><path fill="#297fb8" d="M 187.789062 5.183594 C 187.789062 5.183594 188.363281 4.894531 188.363281 4.894531 L 188.363281 203.917969 L 5.472656 203.917969 C 5.183594 198.15625 4.894531 193.261719 4.894531 188.074219 C 4.894531 87.558594 86.980469 5.183594 187.789062 5.183594 Z M 187.789062 5.183594 " fill-opacity="1" fill-rule="nonzero"/><path fill="#ffffff" d="M 123.558594 28.800781 L 125.863281 35.714844 L 133.351562 35.714844 L 127.304688 40.035156 L 129.609375 46.945312 L 123.558594 42.625 L 117.511719 46.945312 L 119.816406 40.035156 L 113.765625 35.714844 L 121.253906 35.714844 Z M 163.019531 35.714844 L 155.53125 35.714844 L 161.578125 40.035156 L 159.273438 46.945312 L 165.324219 42.625 L 171.371094 46.945312 L 169.066406 40.035156 L 175.113281 35.714844 L 167.625 35.714844 L 165.324219 28.800781 Z M 100.519531 53.285156 L 93.03125 53.285156 L 99.078125 57.605469 L 96.773438 64.515625 L 102.824219 60.195312 L 108.871094 64.515625 L 106.566406 57.605469 L 112.613281 53.285156 L 105.125 53.285156 L 102.824219 46.371094 Z M 142.28125 53.285156 L 134.792969 53.285156 L 140.839844 57.605469 L 138.535156 64.515625 L 144.585938 60.195312 L 150.632812 64.515625 L 148.042969 57.605469 L 154.089844 53.285156 L 146.890625 53.285156 L 144.585938 46.371094 Z M 79.78125 71.140625 L 72.292969 71.140625 L 78.339844 75.460938 L 76.035156 82.375 L 82.085938 78.054688 L 88.132812 82.375 L 85.828125 75.460938 L 91.878906 71.140625 L 84.390625 71.140625 L 82.085938 64.226562 Z M 121.253906 71.140625 L 113.765625 71.140625 L 119.816406 75.460938 L 117.511719 82.375 L 123.558594 78.054688 L 129.609375 82.375 L 127.304688 75.460938 L 133.351562 71.140625 L 125.863281 71.140625 L 123.558594 64.226562 Z M 163.019531 71.140625 L 155.53125 71.140625 L 161.578125 75.460938 L 159.273438 82.375 L 165.324219 78.054688 L 171.371094 82.375 L 169.066406 75.460938 L 175.113281 71.140625 L 167.625 71.140625 L 165.324219 64.226562 Z M 59.042969 88.710938 L 51.554688 88.710938 L 57.605469 93.03125 L 55.300781 99.941406 L 61.347656 95.621094 L 67.394531 99.941406 L 65.09375 93.03125 L 71.140625 88.710938 L 63.363281 88.710938 L 61.058594 81.796875 Z M 100.519531 88.710938 L 93.03125 88.710938 L 99.078125 93.03125 L 96.773438 99.941406 L 102.824219 95.621094 L 108.871094 99.941406 L 106.566406 93.03125 L 112.613281 88.710938 L 105.125 88.710938 L 102.824219 81.796875 Z M 142.28125 88.710938 L 134.792969 88.710938 L 140.839844 93.03125 L 138.535156 99.941406 L 144.585938 95.621094 L 150.632812 99.941406 L 148.328125 93.03125 L 154.378906 88.710938 L 146.890625 88.710938 L 144.585938 81.796875 Z M 38.019531 106.566406 L 30.53125 106.566406 L 36.578125 110.886719 L 34.5625 117.800781 L 40.609375 113.480469 L 46.660156 117.800781 L 44.355469 110.886719 L 50.402344 106.566406 L 42.914062 106.566406 L 40.324219 99.367188 Z M 79.78125 106.566406 L 72.292969 106.566406 L 78.339844 110.886719 L 76.035156 117.800781 L 82.085938 113.480469 L 88.132812 117.800781 L 85.828125 110.886719 L 91.878906 106.566406 L 84.390625 106.566406 L 82.085938 99.65625 Z M 121.253906 106.566406 L 113.765625 106.566406 L 119.816406 110.886719 L 117.511719 117.800781 L 123.558594 113.480469 L 129.609375 117.800781 L 127.304688 110.886719 L 133.351562 106.566406 L 125.863281 106.566406 L 123.558594 99.65625 Z M 163.019531 106.566406 L 155.53125 106.566406 L 161.578125 110.886719 L 159.273438 117.800781 L 165.324219 113.480469 L 171.371094 117.800781 L 169.066406 110.886719 L 175.113281 106.566406 L 167.625 106.566406 L 165.324219 99.65625 Z M 59.042969 124.136719 L 51.554688 124.136719 L 57.605469 128.457031 L 55.300781 135.367188 L 61.347656 131.046875 L 67.394531 135.367188 L 65.09375 128.457031 L 71.140625 124.136719 L 63.363281 124.136719 L 61.058594 117.222656 Z M 100.519531 124.136719 L 93.03125 124.136719 L 99.078125 128.457031 L 96.773438 135.367188 L 102.824219 131.046875 L 108.871094 135.367188 L 106.566406 128.457031 L 112.613281 124.136719 L 105.125 124.136719 L 102.824219 117.222656 Z M 142.28125 124.136719 L 134.792969 124.136719 L 140.839844 128.457031 L 138.535156 135.367188 L 144.585938 131.046875 L 150.632812 135.367188 L 148.328125 128.457031 L 154.378906 124.136719 L 146.890625 124.136719 L 144.585938 117.222656 Z M 38.019531 141.992188 L 30.53125 141.992188 L 36.578125 146.3125 L 34.5625 153.226562 L 40.609375 148.90625 L 46.660156 153.226562 L 44.355469 146.3125 L 50.402344 141.992188 L 42.914062 141.992188 L 40.324219 134.792969 Z M 79.78125 141.992188 L 72.292969 141.992188 L 78.339844 146.3125 L 76.035156 153.226562 L 82.085938 148.90625 L 88.132812 153.226562 L 85.828125 146.3125 L 91.878906 141.992188 L 84.390625 141.992188 L 82.085938 135.082031 Z M 121.253906 141.992188 L 113.765625 141.992188 L 119.816406 146.3125 L 117.511719 153.226562 L 123.558594 148.90625 L 129.609375 153.226562 L 127.304688 146.3125 L 133.351562 141.992188 L 125.863281 141.992188 L 123.558594 135.082031 Z M 163.019531 141.992188 L 155.53125 141.992188 L 161.578125 146.3125 L 159.273438 153.226562 L 165.324219 148.90625 L 171.371094 153.226562 L 169.066406 146.3125 L 175.113281 141.992188 L 167.625 141.992188 L 165.324219 135.082031 Z M 59.042969 159.5625 L 51.554688 159.5625 L 57.605469 163.882812 L 55.300781 170.796875 L 61.347656 166.476562 L 67.394531 170.796875 L 65.09375 163.882812 L 71.140625 159.5625 L 63.363281 159.5625 L 61.058594 152.648438 Z M 100.519531 159.5625 L 93.03125 159.5625 L 99.078125 163.882812 L 96.773438 170.796875 L 102.824219 166.476562 L 108.871094 170.796875 L 106.566406 163.882812 L 112.613281 159.5625 L 105.125 159.5625 L 102.824219 152.648438 Z M 142.28125 159.5625 L 134.792969 159.5625 L 140.839844 163.882812 L 138.535156 170.796875 L 144.585938 166.476562 L 150.632812 170.796875 L 148.328125 163.882812 L 154.378906 159.5625 L 146.890625 159.5625 L 144.585938 152.648438 Z M 38.019531 177.417969 L 30.53125 177.417969 L 36.578125 181.738281 L 34.5625 188.652344 L 40.324219 184.332031 L 46.371094 188.652344 L 44.066406 181.738281 L 50.113281 177.417969 L 42.625 177.417969 L 40.324219 170.21875 Z M 79.78125 177.417969 L 72.292969 177.417969 L 78.339844 181.738281 L 76.035156 188.652344 L 82.085938 184.332031 L 88.132812 188.652344 L 85.828125 181.738281 L 91.878906 177.417969 L 84.390625 177.417969 L 82.085938 170.507812 Z M 121.253906 177.417969 L 113.765625 177.417969 L 119.816406 181.738281 L 117.511719 188.652344 L 123.558594 184.332031 L 129.609375 188.652344 L 127.304688 181.738281 L 133.351562 177.417969 L 125.863281 177.417969 L 123.558594 170.507812 Z M 163.019531 177.417969 L 155.53125 177.417969 L 161.578125 181.738281 L 159.273438 188.652344 L 165.324219 184.332031 L 171.371094 188.652344 L 169.066406 181.738281 L 175.113281 177.417969 L 167.625 177.417969 L 165.324219 170.507812 Z M 163.019531 177.417969 " fill-opacity="1" fill-rule="nonzero"/><path fill="#ffffff" d="M 187.5 372.121094 C 85.828125 372.121094 2.878906 289.457031 2.878906 187.5 C 2.878906 85.542969 85.828125 2.878906 187.5 2.878906 C 289.171875 2.878906 372.121094 85.828125 372.121094 187.5 C 372.121094 289.171875 289.457031 372.121094 187.5 372.121094 Z M 187.5 4.894531 C 86.695312 4.894531 4.894531 86.695312 4.894531 187.5 C 4.894531 288.304688 86.695312 370.105469 187.5 370.105469 C 288.304688 370.105469 370.105469 288.304688 370.105469 187.5 C 370.105469 86.695312 288.304688 4.894531 187.5 4.894531 Z M 187.5 4.894531 " fill-opacity="1" fill-rule="nonzero"/><path fill="#ffffff" d="M 187.5 375 C 84.101562 375 0 290.898438 0 187.5 C 0 84.101562 84.101562 0 187.5 0 C 290.898438 0 375 84.101562 375 187.5 C 375 290.898438 290.898438 375 187.5 375 Z M 187.5 7.777344 C 88.421875 7.777344 7.777344 88.421875 7.777344 187.5 C 7.777344 286.578125 88.421875 367.222656 187.5 367.222656 C 286.578125 367.222656 367.222656 286.578125 367.222656 187.5 C 367.222656 88.421875 286.578125 7.777344 187.5 7.777344 Z M 187.5 7.777344 " fill-opacity="1" fill-rule="nonzero"/></svg>